<svg xmlns="http://www.w3.org/2000/svg" width="128" height="40"><path fill="#0070d1" d="M0 0h128v40H0z" /><g
    aria-label="SiteLint logo"
    font-weight="400"
    font-size="24"
    font-family="Russo One"
    fill="#fff"
    stroke="none"
    stroke-width="0"
  ><path
      d="M16.505 24.92q6.576.36 8.904.36.552 0 .864-.312.336-.336.336-.888v-2.16h-5.52q-2.52 0-3.672-1.128-1.128-1.152-1.128-3.672v-.72q0-2.52 1.128-3.648 1.152-1.152 3.672-1.152h8.424v3.36h-7.464q-1.44 0-1.44 1.44v.48q0 1.44 1.44 1.44h4.32q2.352 0 3.456 1.104t1.104 3.456v1.2q0 2.352-1.104 3.456t-3.456 1.104q-1.224 0-2.592-.048l-2.208-.096q-2.448-.12-5.064-.336zM38.127 16.16V28.4h-4.2v-9h-1.8v-3.24zm-4.2-4.8h4.2v3.36h-4.2zM49.415 28.4q-2.328.24-4.56.24-1.632 0-2.616-.984-.984-.984-.984-2.616v-6.12h-1.44v-3.24h1.44l.48-2.88h3.72v2.88h3v3.24h-3v5.52q0 .36.24.6t.6.24h3.12zM55.767 18.44q-.96 0-.96.96v1.32h4.08V19.4q0-.96-.96-.96zm6.84 9.72q-4.632.48-8.4.48-1.632 0-2.616-.984-.984-.984-.984-2.616v-5.76q0-1.8 1.008-2.808 1.032-1.032 2.832-1.032h4.8q1.8 0 2.808 1.032 1.032 1.008 1.032 2.808v4.44h-8.28v.96q0 .36.24.6t.6.24q2.376 0 6.96-.36zM69.798 25.04h8.76v3.36h-13.08V11.6h4.32zM85.283 16.16V28.4h-4.2v-9h-1.8v-3.24zm-4.2-4.8h4.2v3.36h-4.2zM94.77 18.92q-1.271 0-2.88.48v9h-4.2V15.68h3.72l.24 1.2q1.129-.744 2.305-1.08 1.2-.36 2.016-.36h1.08q1.632 0 2.616.984.984.984.984 2.616v9.36h-4.2v-8.64q0-.36-.24-.6t-.6-.24zM111.712 28.4q-2.329.24-4.56.24-1.633 0-2.617-.984-.983-.984-.983-2.616v-6.12h-1.44v-3.24h1.44l.48-2.88h3.72v2.88h3v3.24h-3v5.52q0 .36.24.6t.6.24h3.12z"
    /></g>
</svg>
